<?xml version="1.0" encoding="UTF-8"?>
<!DOCTYPE svg PUBLIC "-//W3C//DTD SVG 1.1//EN" "http://www.w3.org/Graphics/SVG/1.1/DTD/svg11.dtd">
<svg version="1.1" xmlns="http://www.w3.org/2000/svg" xmlns:xlink="http://www.w3.org/1999/xlink" x="0" y="0" width="73" height="94.25" viewBox="0, 0, 146, 188.5">
  <defs>
    <radialGradient id="Gradient_1" gradientUnits="userSpaceOnUse" cx="322.379" cy="-289.997" r="91.782" gradientTransform="matrix(1, 0, 0, -1, 0, 0)">
      <stop offset="0" stop-color="#FFC6A4"/>
      <stop offset="0.355" stop-color="#ED2713"/>
      <stop offset="1" stop-color="#9E0000"/>
    </radialGradient>
  </defs>
  <g id="Layer_1" transform="translate(-227, -204.25)">
    <g>
      <g>
        <path d="M300.5,248.25 C260.736,248.25 228.5,280.486 228.5,320.25 C228.5,360.014 260.736,392.25 300.5,392.25 C340.264,392.25 372.5,360.014 372.5,320.25 C372.5,280.486 340.264,248.25 300.5,248.25 z" fill="url(#Gradient_1)"/>
        <path d="M300.5,248.25 C260.736,248.25 228.5,280.486 228.5,320.25 C228.5,360.014 260.736,392.25 300.5,392.25 C340.264,392.25 372.5,360.014 372.5,320.25 C372.5,280.486 340.264,248.25 300.5,248.25 z" fill-opacity="0" stroke="#000000" stroke-width="1"/>
      </g>
      <g>
        <path d="M258.096,212.419 C272.977,210.974 286.65,218.895 293.686,231.883 C297.415,239.004 298.067,246.431 297.098,254.274 C282.218,255.719 268.545,247.798 261.508,234.81 C257.78,227.689 257.128,220.262 258.096,212.419 z" fill="#318C3D" fill-opacity="0.978"/>
        <path d="M258.096,212.419 C272.977,210.974 286.65,218.895 293.686,231.883 C297.415,239.004 298.067,246.431 297.098,254.274 C282.218,255.719 268.545,247.798 261.508,234.81 C257.78,227.689 257.128,220.262 258.096,212.419 z" fill-opacity="0" stroke="#000000" stroke-width="1"/>
      </g>
      <g>
        <path d="M345.904,212.419 C331.023,210.974 317.35,218.895 310.314,231.883 C306.585,239.004 305.933,246.431 306.902,254.274 C321.782,255.719 335.455,247.798 342.492,234.81 C346.22,227.689 346.872,220.262 345.904,212.419 z" fill="#318C3D" fill-opacity="0.978"/>
        <path d="M345.904,212.419 C331.023,210.974 317.35,218.895 310.314,231.883 C306.585,239.004 305.933,246.431 306.902,254.274 C321.782,255.719 335.455,247.798 342.492,234.81 C346.22,227.689 346.872,220.262 345.904,212.419 z" fill-opacity="0" stroke="#000000" stroke-width="1"/>
      </g>
      <path d="M303.361,245.653 L303.183,244.259 L302.924,241.584 L302.788,239.022 L302.766,236.549 L302.854,234.154 L303.046,231.826 L303.336,229.554 L303.719,227.324 L304.191,225.124 L304.747,222.942 L305.383,220.762 L306.096,218.572 L306.882,216.358 L307.738,214.108 L308.66,211.807 L309.645,209.446 L310.156,208.246 L310.156,208.246 C310.702,206.966 310.178,206.154 308.987,206.432 C307.797,206.711 306.389,207.974 305.844,209.254 L305.311,210.504 L304.29,212.954 L303.325,215.365 L302.42,217.749 L301.583,220.114 L300.819,222.469 L300.134,224.824 L299.536,227.186 L299.03,229.565 L298.621,231.968 L298.313,234.405 L298.113,236.886 L298.023,239.422 L298.048,242.022 L298.193,244.699 L298.46,247.451 L298.639,248.847 C298.763,249.815 299.921,249.886 301.225,249.004 C302.529,248.122 303.485,246.622 303.361,245.653 L303.361,245.653" fill="#844A12"/>
    </g>
  </g>
</svg>
